<svg class="border shadow-md" viewBox="0 0 1351.68 760.32" style="width: 1351.68px; height: 760.32px;" xmlns="http://www.w3.org/2000/svg" preserveAspectRatio="none"><rect class="bg" id="bg" x="0" y="0" width="1351.68" height="760.32" fill="#ffffff"/><polygon points="0,10 10,10 5,0" stroke="none" fill="#98d7c2" stroke-width="10" stroke-linejoin="round" transform=" rotate(284 50 50) scale(37)"/><path d="M7.5,6.5Q7,7,6.5,9Q6,11,4.5,10Q3,9,3,7.5Q3,6,3.5,5Q4,4,5,2.5Q6,1,7,2.5Q8,4,8,5Q8,6,7.5,6.5Z" stroke="none" fill="#5d0482" transform=" rotate(37 50 50) scale(36)"/><circle cx="5" cy="5" r="5" stroke="none" stroke-width="10" fill="#7bc677" transform="translate(549.12, 633.6) rotate(162 50 50) scale(25.344000000000005)"/></svg>